<mxfile host="Electron" agent="Mozilla/5.0 (Macintosh; Intel Mac OS X 10_15_7) AppleWebKit/537.36 (KHTML, like Gecko) draw.io/24.7.8 Chrome/128.0.6613.36 Electron/32.0.1 Safari/537.36" version="24.7.8">
  <diagram name="Page-1" id="FlwHep-Ae2NElC6db1g3">
    <mxGraphModel dx="2963" dy="1810" grid="0" gridSize="10" guides="1" tooltips="1" connect="1" arrows="1" fold="1" page="0" pageScale="1" pageWidth="850" pageHeight="1100" math="0" shadow="0">
      <root>
        <mxCell id="0" />
        <mxCell id="1" parent="0" />
        <mxCell id="lvPL8FigHDONjPvJ2wHA-15" value="" style="rounded=1;whiteSpace=wrap;html=1;arcSize=6;" vertex="1" parent="1">
          <mxGeometry x="342.26" y="474" width="473" height="253" as="geometry" />
        </mxCell>
        <mxCell id="lvPL8FigHDONjPvJ2wHA-2" value="" style="ellipse;whiteSpace=wrap;html=1;aspect=fixed;strokeWidth=2;" vertex="1" parent="1">
          <mxGeometry x="469.76" y="491.5" width="218" height="218" as="geometry" />
        </mxCell>
        <mxCell id="lvPL8FigHDONjPvJ2wHA-4" style="rounded=0;orthogonalLoop=1;jettySize=auto;html=1;entryX=1;entryY=0.5;entryDx=0;entryDy=0;endArrow=none;endFill=0;strokeWidth=2;" edge="1" parent="1" source="lvPL8FigHDONjPvJ2wHA-3" target="lvPL8FigHDONjPvJ2wHA-2">
          <mxGeometry relative="1" as="geometry" />
        </mxCell>
        <mxCell id="lvPL8FigHDONjPvJ2wHA-3" value="" style="ellipse;whiteSpace=wrap;html=1;aspect=fixed;strokeWidth=2;" vertex="1" parent="1">
          <mxGeometry x="511.76" y="533.5" width="134" height="134" as="geometry" />
        </mxCell>
        <mxCell id="lvPL8FigHDONjPvJ2wHA-5" style="rounded=0;orthogonalLoop=1;jettySize=auto;html=1;entryX=1;entryY=1;entryDx=0;entryDy=0;endArrow=none;endFill=0;exitX=1;exitY=1;exitDx=0;exitDy=0;strokeWidth=2;" edge="1" parent="1" source="lvPL8FigHDONjPvJ2wHA-3" target="lvPL8FigHDONjPvJ2wHA-2">
          <mxGeometry relative="1" as="geometry">
            <mxPoint x="655.76" y="610.5" as="sourcePoint" />
            <mxPoint x="697.76" y="610.5" as="targetPoint" />
          </mxGeometry>
        </mxCell>
        <mxCell id="lvPL8FigHDONjPvJ2wHA-6" style="rounded=0;orthogonalLoop=1;jettySize=auto;html=1;entryX=0.5;entryY=1;entryDx=0;entryDy=0;endArrow=none;endFill=0;exitX=0.5;exitY=1;exitDx=0;exitDy=0;strokeWidth=2;" edge="1" parent="1" source="lvPL8FigHDONjPvJ2wHA-3" target="lvPL8FigHDONjPvJ2wHA-2">
          <mxGeometry relative="1" as="geometry">
            <mxPoint x="635.76" y="657.5" as="sourcePoint" />
            <mxPoint x="665.76" y="687.5" as="targetPoint" />
          </mxGeometry>
        </mxCell>
        <mxCell id="lvPL8FigHDONjPvJ2wHA-7" style="rounded=0;orthogonalLoop=1;jettySize=auto;html=1;entryX=0;entryY=1;entryDx=0;entryDy=0;endArrow=none;endFill=0;exitX=0;exitY=1;exitDx=0;exitDy=0;strokeWidth=2;" edge="1" parent="1" source="lvPL8FigHDONjPvJ2wHA-3" target="lvPL8FigHDONjPvJ2wHA-2">
          <mxGeometry relative="1" as="geometry">
            <mxPoint x="588.76" y="677.5" as="sourcePoint" />
            <mxPoint x="588.76" y="719.5" as="targetPoint" />
          </mxGeometry>
        </mxCell>
        <mxCell id="lvPL8FigHDONjPvJ2wHA-8" style="rounded=0;orthogonalLoop=1;jettySize=auto;html=1;endArrow=none;endFill=0;exitX=0;exitY=0.5;exitDx=0;exitDy=0;strokeWidth=2;" edge="1" parent="1" source="lvPL8FigHDONjPvJ2wHA-3" target="lvPL8FigHDONjPvJ2wHA-2">
          <mxGeometry relative="1" as="geometry">
            <mxPoint x="541.76" y="657.5" as="sourcePoint" />
            <mxPoint x="511.76" y="687.5" as="targetPoint" />
          </mxGeometry>
        </mxCell>
        <mxCell id="lvPL8FigHDONjPvJ2wHA-9" style="rounded=0;orthogonalLoop=1;jettySize=auto;html=1;endArrow=none;endFill=0;exitX=0;exitY=0;exitDx=0;exitDy=0;entryX=0;entryY=0;entryDx=0;entryDy=0;strokeWidth=2;" edge="1" parent="1" source="lvPL8FigHDONjPvJ2wHA-3" target="lvPL8FigHDONjPvJ2wHA-2">
          <mxGeometry relative="1" as="geometry">
            <mxPoint x="521.76" y="610.5" as="sourcePoint" />
            <mxPoint x="479.76" y="610.5" as="targetPoint" />
          </mxGeometry>
        </mxCell>
        <mxCell id="lvPL8FigHDONjPvJ2wHA-10" style="rounded=0;orthogonalLoop=1;jettySize=auto;html=1;endArrow=none;endFill=0;exitX=0.5;exitY=0;exitDx=0;exitDy=0;entryX=0.5;entryY=0;entryDx=0;entryDy=0;strokeWidth=2;" edge="1" parent="1" source="lvPL8FigHDONjPvJ2wHA-3" target="lvPL8FigHDONjPvJ2wHA-2">
          <mxGeometry relative="1" as="geometry">
            <mxPoint x="541.76" y="563.5" as="sourcePoint" />
            <mxPoint x="511.76" y="533.5" as="targetPoint" />
          </mxGeometry>
        </mxCell>
        <mxCell id="lvPL8FigHDONjPvJ2wHA-11" style="rounded=0;orthogonalLoop=1;jettySize=auto;html=1;endArrow=none;endFill=0;exitX=1;exitY=0;exitDx=0;exitDy=0;entryX=1;entryY=0;entryDx=0;entryDy=0;strokeWidth=2;" edge="1" parent="1" source="lvPL8FigHDONjPvJ2wHA-3" target="lvPL8FigHDONjPvJ2wHA-2">
          <mxGeometry relative="1" as="geometry">
            <mxPoint x="588.76" y="543.5" as="sourcePoint" />
            <mxPoint x="588.76" y="501.5" as="targetPoint" />
          </mxGeometry>
        </mxCell>
        <mxCell id="lvPL8FigHDONjPvJ2wHA-12" value="" style="rounded=0;whiteSpace=wrap;html=1;" vertex="1" parent="1">
          <mxGeometry x="277.51" y="762" width="602.5" height="274" as="geometry" />
        </mxCell>
        <mxCell id="lvPL8FigHDONjPvJ2wHA-13" value="&lt;font face=&quot;Courier New&quot;&gt;&lt;span style=&quot;font-size: 24px;&quot;&gt;&lt;b&gt;&lt;font color=&quot;#009900&quot;&gt;__global__&lt;/font&gt; &lt;font color=&quot;#3333ff&quot;&gt;kernel&lt;/font&gt;(..., void *ring){&lt;/b&gt;&lt;/span&gt;&lt;/font&gt;&lt;div&gt;&lt;font face=&quot;Courier New&quot;&gt;&lt;span style=&quot;font-size: 24px;&quot;&gt;&lt;b&gt;&amp;nbsp; &amp;nbsp; /* ... */&lt;/b&gt;&lt;/span&gt;&lt;/font&gt;&lt;/div&gt;&lt;div&gt;&lt;font face=&quot;Courier New&quot;&gt;&lt;span style=&quot;font-size: 24px;&quot;&gt;&lt;b&gt;&amp;nbsp; &amp;nbsp; if(failed_condition){&lt;/b&gt;&lt;/span&gt;&lt;/font&gt;&lt;/div&gt;&lt;div&gt;&lt;font face=&quot;Courier New&quot;&gt;&lt;span style=&quot;font-size: 24px;&quot;&gt;&lt;b&gt;&amp;nbsp; &amp;nbsp; &amp;nbsp; &amp;nbsp;&amp;nbsp;&lt;/b&gt;&lt;/span&gt;&lt;/font&gt;&lt;b style=&quot;background-color: initial;&quot;&gt;&lt;font style=&quot;font-size: 24px;&quot; face=&quot;Courier New&quot;&gt;ring-&amp;gt;&lt;font color=&quot;#3333ff&quot;&gt;insert&lt;/font&gt;(&quot;&lt;/font&gt;&lt;/b&gt;&lt;b style=&quot;background-color: initial; font-family: &amp;quot;Courier New&amp;quot;; font-size: 24px;&quot;&gt;failed message&lt;/b&gt;&lt;b style=&quot;background-color: initial;&quot;&gt;&lt;font style=&quot;font-size: 24px;&quot; face=&quot;Courier New&quot;&gt;&quot;&lt;/font&gt;&lt;/b&gt;&lt;b style=&quot;background-color: initial;&quot;&gt;&lt;font style=&quot;font-size: 24px;&quot; face=&quot;Courier New&quot;&gt;)&lt;/font&gt;&lt;/b&gt;&lt;/div&gt;&lt;div&gt;&lt;b&gt;&lt;font style=&quot;font-size: 24px;&quot; face=&quot;Courier New&quot;&gt;&amp;nbsp; &amp;nbsp; &amp;nbsp; &amp;nbsp; &lt;font color=&quot;#3333ff&quot;&gt;assert&lt;/font&gt;(&lt;/font&gt;&lt;/b&gt;&lt;b style=&quot;background-color: initial; font-family: &amp;quot;Courier New&amp;quot;; font-size: 24px;&quot;&gt;failed_condition&lt;/b&gt;&lt;b style=&quot;background-color: initial;&quot;&gt;&lt;font style=&quot;font-size: 24px;&quot; face=&quot;Courier New&quot;&gt;)&lt;/font&gt;&lt;/b&gt;&lt;/div&gt;&lt;div&gt;&lt;font face=&quot;Courier New&quot;&gt;&lt;span style=&quot;font-size: 24px;&quot;&gt;&lt;b&gt;&amp;nbsp; &amp;nbsp; }&lt;br&gt;&lt;/b&gt;&lt;/span&gt;&lt;/font&gt;&lt;div&gt;&lt;font face=&quot;Courier New&quot;&gt;&lt;span style=&quot;font-size: 24px;&quot;&gt;&lt;b&gt;}&lt;/b&gt;&lt;/span&gt;&lt;/font&gt;&lt;/div&gt;&lt;/div&gt;" style="text;html=1;align=left;verticalAlign=middle;whiteSpace=wrap;rounded=0;" vertex="1" parent="1">
          <mxGeometry x="283.63" y="818" width="590.25" height="181" as="geometry" />
        </mxCell>
        <mxCell id="lvPL8FigHDONjPvJ2wHA-14" value="" style="rounded=0;whiteSpace=wrap;html=1;" vertex="1" parent="1">
          <mxGeometry x="277.51" y="239" width="602.5" height="181" as="geometry" />
        </mxCell>
        <mxCell id="lvPL8FigHDONjPvJ2wHA-16" value="&lt;b&gt;Unified Memory&lt;/b&gt;" style="text;html=1;align=center;verticalAlign=middle;whiteSpace=wrap;rounded=0;fontSize=30;" vertex="1" parent="1">
          <mxGeometry x="382" y="670.5" width="60" height="30" as="geometry" />
        </mxCell>
        <mxCell id="lvPL8FigHDONjPvJ2wHA-19" value="" style="endArrow=classic;html=1;rounded=1;edgeStyle=orthogonalEdgeStyle;curved=0;entryX=1;entryY=0.5;entryDx=0;entryDy=0;strokeWidth=3;strokeColor=#FF0000;" edge="1" parent="1" target="lvPL8FigHDONjPvJ2wHA-20">
          <mxGeometry width="50" height="50" relative="1" as="geometry">
            <mxPoint x="835" y="903" as="sourcePoint" />
            <mxPoint x="658" y="655" as="targetPoint" />
            <Array as="points">
              <mxPoint x="967" y="903" />
              <mxPoint x="967" y="632" />
            </Array>
          </mxGeometry>
        </mxCell>
        <mxCell id="lvPL8FigHDONjPvJ2wHA-20" value="" style="whiteSpace=wrap;html=1;aspect=fixed;fillColor=#FF0000;" vertex="1" parent="1">
          <mxGeometry x="648" y="621.5" width="21" height="21" as="geometry" />
        </mxCell>
        <mxCell id="lvPL8FigHDONjPvJ2wHA-21" value="&lt;b&gt;GPU&lt;/b&gt;" style="text;html=1;align=center;verticalAlign=middle;whiteSpace=wrap;rounded=0;fontSize=30;" vertex="1" parent="1">
          <mxGeometry x="283.63" y="768" width="60" height="30" as="geometry" />
        </mxCell>
        <mxCell id="lvPL8FigHDONjPvJ2wHA-22" value="&lt;b&gt;CPU&lt;/b&gt;" style="text;html=1;align=center;verticalAlign=middle;whiteSpace=wrap;rounded=0;fontSize=30;" vertex="1" parent="1">
          <mxGeometry x="285" y="245" width="60" height="30" as="geometry" />
        </mxCell>
        <mxCell id="lvPL8FigHDONjPvJ2wHA-23" value="&lt;font face=&quot;Courier New&quot;&gt;&lt;span style=&quot;font-size: 24px;&quot;&gt;&lt;b style=&quot;&quot;&gt;&lt;font color=&quot;#009900&quot;&gt;C10_CUDA_CHECK&lt;/font&gt;(&lt;font color=&quot;#009900&quot;&gt;cudaMalloc&lt;/font&gt;(...))&lt;/b&gt;&lt;/span&gt;&lt;/font&gt;" style="text;html=1;align=left;verticalAlign=middle;whiteSpace=wrap;rounded=0;" vertex="1" parent="1">
          <mxGeometry x="283.63" y="355" width="470.37" height="38" as="geometry" />
        </mxCell>
        <mxCell id="lvPL8FigHDONjPvJ2wHA-24" value="&lt;font face=&quot;Courier New&quot;&gt;&lt;span style=&quot;font-size: 24px;&quot;&gt;&lt;b style=&quot;&quot;&gt;&lt;font color=&quot;#009900&quot;&gt;C10_CUDA_CHECK&lt;/font&gt;(&lt;font color=&quot;#009900&quot;&gt;kernel&lt;/font&gt;&amp;lt;&amp;lt;&amp;lt;...&amp;gt;&amp;gt;&amp;gt;(...))&lt;/b&gt;&lt;/span&gt;&lt;/font&gt;" style="text;html=1;align=left;verticalAlign=middle;whiteSpace=wrap;rounded=0;" vertex="1" parent="1">
          <mxGeometry x="283.63" y="291" width="590.25" height="38" as="geometry" />
        </mxCell>
        <mxCell id="lvPL8FigHDONjPvJ2wHA-25" value="" style="endArrow=classic;html=1;rounded=1;edgeStyle=orthogonalEdgeStyle;curved=0;entryX=0;entryY=0;entryDx=0;entryDy=0;strokeWidth=3;exitX=0;exitY=0.5;exitDx=0;exitDy=0;strokeColor=#FF0000;" edge="1" parent="1" source="lvPL8FigHDONjPvJ2wHA-24" target="lvPL8FigHDONjPvJ2wHA-13">
          <mxGeometry width="50" height="50" relative="1" as="geometry">
            <mxPoint x="845" y="913" as="sourcePoint" />
            <mxPoint x="679" y="661" as="targetPoint" />
            <Array as="points">
              <mxPoint x="207" y="310" />
              <mxPoint x="207" y="818" />
            </Array>
          </mxGeometry>
        </mxCell>
        <mxCell id="lvPL8FigHDONjPvJ2wHA-26" value="&lt;font style=&quot;font-size: 30px;&quot;&gt;&lt;b&gt;1&lt;/b&gt;&lt;/font&gt;" style="ellipse;whiteSpace=wrap;html=1;aspect=fixed;fontColor=#FF0000;strokeColor=#FF0000;strokeWidth=2;" vertex="1" parent="1">
          <mxGeometry x="189" y="539" width="37" height="37" as="geometry" />
        </mxCell>
        <mxCell id="lvPL8FigHDONjPvJ2wHA-27" value="&lt;font style=&quot;font-size: 30px;&quot;&gt;&lt;b&gt;2&lt;/b&gt;&lt;/font&gt;" style="ellipse;whiteSpace=wrap;html=1;aspect=fixed;fontColor=#FF0000;strokeColor=#FF0000;strokeWidth=2;" vertex="1" parent="1">
          <mxGeometry x="947" y="694" width="37" height="37" as="geometry" />
        </mxCell>
        <mxCell id="lvPL8FigHDONjPvJ2wHA-28" value="" style="endArrow=classic;html=1;rounded=0;edgeStyle=orthogonalEdgeStyle;curved=1;strokeWidth=3;strokeColor=#FF0000;" edge="1" parent="1">
          <mxGeometry width="50" height="50" relative="1" as="geometry">
            <mxPoint x="745" y="934" as="sourcePoint" />
            <mxPoint x="845" y="987" as="targetPoint" />
          </mxGeometry>
        </mxCell>
        <mxCell id="lvPL8FigHDONjPvJ2wHA-29" value="&lt;b&gt;&lt;font color=&quot;#ff0000&quot; style=&quot;font-size: 25px;&quot;&gt;kernel failed&lt;/font&gt;&lt;/b&gt;" style="text;html=1;align=center;verticalAlign=middle;whiteSpace=wrap;rounded=0;fontSize=30;" vertex="1" parent="1">
          <mxGeometry x="763" y="982" width="156" height="23" as="geometry" />
        </mxCell>
        <mxCell id="lvPL8FigHDONjPvJ2wHA-30" value="&lt;font style=&quot;font-size: 30px;&quot;&gt;&lt;b&gt;3&lt;/b&gt;&lt;/font&gt;" style="ellipse;whiteSpace=wrap;html=1;aspect=fixed;fontColor=#FF0000;strokeColor=#FF0000;strokeWidth=2;" vertex="1" parent="1">
          <mxGeometry x="797" y="929" width="37" height="37" as="geometry" />
        </mxCell>
        <mxCell id="lvPL8FigHDONjPvJ2wHA-31" value="" style="endArrow=classic;html=1;rounded=1;edgeStyle=orthogonalEdgeStyle;curved=0;entryX=1;entryY=0.5;entryDx=0;entryDy=0;strokeWidth=3;strokeColor=#FF0000;exitX=0.5;exitY=0;exitDx=0;exitDy=0;" edge="1" parent="1" source="lvPL8FigHDONjPvJ2wHA-20" target="lvPL8FigHDONjPvJ2wHA-23">
          <mxGeometry width="50" height="50" relative="1" as="geometry">
            <mxPoint x="845" y="913" as="sourcePoint" />
            <mxPoint x="679" y="642" as="targetPoint" />
            <Array as="points">
              <mxPoint x="658" y="550" />
              <mxPoint x="970" y="550" />
              <mxPoint x="970" y="374" />
            </Array>
          </mxGeometry>
        </mxCell>
        <mxCell id="lvPL8FigHDONjPvJ2wHA-32" value="&lt;font style=&quot;font-size: 30px;&quot;&gt;&lt;b&gt;4&lt;/b&gt;&lt;/font&gt;" style="ellipse;whiteSpace=wrap;html=1;aspect=fixed;fontColor=#FF0000;strokeColor=#FF0000;strokeWidth=2;" vertex="1" parent="1">
          <mxGeometry x="951" y="454" width="37" height="37" as="geometry" />
        </mxCell>
        <mxCell id="lvPL8FigHDONjPvJ2wHA-34" value="&lt;b&gt;&lt;font color=&quot;#ff0000&quot; style=&quot;font-size: 25px;&quot;&gt;launch kernel&lt;/font&gt;&lt;/b&gt;" style="text;html=1;align=center;verticalAlign=middle;whiteSpace=wrap;rounded=0;fontSize=30;" vertex="1" parent="1">
          <mxGeometry x="225" y="518" width="102" height="74.5" as="geometry" />
        </mxCell>
        <mxCell id="lvPL8FigHDONjPvJ2wHA-35" value="&lt;b&gt;&lt;font color=&quot;#ff0000&quot; style=&quot;font-size: 25px;&quot;&gt;report&lt;/font&gt;&lt;/b&gt;" style="text;html=1;align=center;verticalAlign=middle;whiteSpace=wrap;rounded=0;fontSize=30;" vertex="1" parent="1">
          <mxGeometry x="861" y="695.12" width="79" height="34.75" as="geometry" />
        </mxCell>
        <mxCell id="lvPL8FigHDONjPvJ2wHA-36" value="&lt;b&gt;&lt;font color=&quot;#ff0000&quot; style=&quot;font-size: 25px;&quot;&gt;detected&lt;/font&gt;&lt;/b&gt;" style="text;html=1;align=center;verticalAlign=middle;whiteSpace=wrap;rounded=0;fontSize=30;" vertex="1" parent="1">
          <mxGeometry x="842" y="455.12" width="99" height="34.75" as="geometry" />
        </mxCell>
      </root>
    </mxGraphModel>
  </diagram>
</mxfile>
